M48
;GenerationSoftware,Autodesk,EAGLE,9.4.2*%
;CreationDate,2021-01-08T22:52:49Z*%
FMAT,2
ICI,OFF
METRIC,TZ,000.000
T7C0.200
T6C0.350
T5C0.914
T4C1.016
T3C1.250
T2C1.800
T1C3.500
%
G90
M71
T1
X18000Y5000
X52000Y65000
X18000Y65000
X52000Y5000
T2
X58000Y39500
X58000Y30500
X39500Y35000
X30500Y35000
X12000Y30500
X12000Y39500
X35000Y17000
X35000Y8000
X35000Y53000
X35000Y62000
T3
X32750Y28750
X51750Y37250
X64250Y32750
X32750Y41250
X64250Y37250
X51750Y32750
X41250Y55250
X28750Y55250
X41250Y59750
X28750Y59750
X28750Y14750
X41250Y14750
X28750Y10250
X41250Y10250
X18250Y32750
X5750Y32750
X18250Y37250
X5750Y37250
X37250Y41250
X37250Y28750
T4
X14000Y53730
X14000Y56270
X14000Y58810
X14000Y61350
X11810Y1920
X11810Y4460
X11810Y7000
X11810Y9540
X11810Y12080
X11810Y16420
X11810Y18960
X11810Y21500
X11810Y24040
X11810Y26580
X58190Y61350
X58190Y58810
X58190Y56270
X58190Y53730
X58190Y51190
X58190Y48650
X14000Y48650
X14000Y51190
T5
X46749Y49000
X53251Y49000
T6
X22000Y23000
X60000Y5000
X48000Y63500
X25000Y31000
X43500Y31000
X42886Y25992
X47435Y12907
X47671Y11135
X50329Y11371
X49767Y12404
X50093Y7872
X42000Y12376
X62718Y29595
X57034Y11253
X58540Y11401
X56532Y23924
X16924Y40878
X47139Y28576
X13734Y28266
X50891Y28473
X39076Y43063
X27953Y56667
X22034Y38338
X28975Y46578
X45878Y23215
X44009Y27808
X23865Y44983
X23865Y35118
X27114Y20956
X54848Y12080
X55262Y28827
X40819Y25017
X28473Y42591
X52545Y30570
X41557Y29152
X12500Y65000
X22000Y46000
T7
X54260Y18083
X53342Y20835
X53342Y19000
X53342Y17165
X52425Y19918
X52425Y18083
X56095Y18083
X55177Y20835
X55177Y19000
X56095Y19918
X54260Y19918
X55177Y17165
M30