G04 EAGLE Gerber RS-274X export*
G75*
%MOMM*%
%FSLAX34Y34*%
%LPD*%
%IN*%
%IPPOS*%
%AMOC8*
5,1,8,0,0,1.08239X$1,22.5*%
G01*
%ADD10C,0.254000*%


D10*
X0Y0D02*
X700000Y0D01*
X700000Y700000D01*
X0Y700000D01*
X0Y0D01*
X537500Y649427D02*
X537425Y648284D01*
X537276Y647148D01*
X537052Y646024D01*
X536755Y644917D01*
X536387Y643832D01*
X535949Y642774D01*
X535442Y641746D01*
X534869Y640754D01*
X534232Y639801D01*
X533535Y638892D01*
X532779Y638031D01*
X531969Y637221D01*
X531108Y636465D01*
X530199Y635768D01*
X529246Y635131D01*
X528254Y634558D01*
X527226Y634051D01*
X526168Y633613D01*
X525083Y633245D01*
X523976Y632948D01*
X522852Y632725D01*
X521716Y632575D01*
X520573Y632500D01*
X519427Y632500D01*
X518284Y632575D01*
X517148Y632725D01*
X516024Y632948D01*
X514917Y633245D01*
X513832Y633613D01*
X512774Y634051D01*
X511746Y634558D01*
X510754Y635131D01*
X509801Y635768D01*
X508892Y636465D01*
X508031Y637221D01*
X507221Y638031D01*
X506465Y638892D01*
X505768Y639801D01*
X505131Y640754D01*
X504558Y641746D01*
X504051Y642774D01*
X503613Y643832D01*
X503245Y644917D01*
X502948Y646024D01*
X502725Y647148D01*
X502575Y648284D01*
X502500Y649427D01*
X502500Y650573D01*
X502575Y651716D01*
X502725Y652852D01*
X502948Y653976D01*
X503245Y655083D01*
X503613Y656168D01*
X504051Y657226D01*
X504558Y658254D01*
X505131Y659246D01*
X505768Y660199D01*
X506465Y661108D01*
X507221Y661969D01*
X508031Y662779D01*
X508892Y663535D01*
X509801Y664232D01*
X510754Y664869D01*
X511746Y665442D01*
X512774Y665949D01*
X513832Y666387D01*
X514917Y666755D01*
X516024Y667052D01*
X517148Y667276D01*
X518284Y667425D01*
X519427Y667500D01*
X520573Y667500D01*
X521716Y667425D01*
X522852Y667276D01*
X523976Y667052D01*
X525083Y666755D01*
X526168Y666387D01*
X527226Y665949D01*
X528254Y665442D01*
X529246Y664869D01*
X530199Y664232D01*
X531108Y663535D01*
X531969Y662779D01*
X532779Y661969D01*
X533535Y661108D01*
X534232Y660199D01*
X534869Y659246D01*
X535442Y658254D01*
X535949Y657226D01*
X536387Y656168D01*
X536755Y655083D01*
X537052Y653976D01*
X537276Y652852D01*
X537425Y651716D01*
X537500Y650573D01*
X537500Y649427D01*
X197500Y649427D02*
X197425Y648284D01*
X197276Y647148D01*
X197052Y646024D01*
X196755Y644917D01*
X196387Y643832D01*
X195949Y642774D01*
X195442Y641746D01*
X194869Y640754D01*
X194232Y639801D01*
X193535Y638892D01*
X192779Y638031D01*
X191969Y637221D01*
X191108Y636465D01*
X190199Y635768D01*
X189246Y635131D01*
X188254Y634558D01*
X187226Y634051D01*
X186168Y633613D01*
X185083Y633245D01*
X183976Y632948D01*
X182852Y632725D01*
X181716Y632575D01*
X180573Y632500D01*
X179427Y632500D01*
X178284Y632575D01*
X177148Y632725D01*
X176024Y632948D01*
X174917Y633245D01*
X173832Y633613D01*
X172774Y634051D01*
X171746Y634558D01*
X170754Y635131D01*
X169801Y635768D01*
X168892Y636465D01*
X168031Y637221D01*
X167221Y638031D01*
X166465Y638892D01*
X165768Y639801D01*
X165131Y640754D01*
X164558Y641746D01*
X164051Y642774D01*
X163613Y643832D01*
X163245Y644917D01*
X162948Y646024D01*
X162725Y647148D01*
X162575Y648284D01*
X162500Y649427D01*
X162500Y650573D01*
X162575Y651716D01*
X162725Y652852D01*
X162948Y653976D01*
X163245Y655083D01*
X163613Y656168D01*
X164051Y657226D01*
X164558Y658254D01*
X165131Y659246D01*
X165768Y660199D01*
X166465Y661108D01*
X167221Y661969D01*
X168031Y662779D01*
X168892Y663535D01*
X169801Y664232D01*
X170754Y664869D01*
X171746Y665442D01*
X172774Y665949D01*
X173832Y666387D01*
X174917Y666755D01*
X176024Y667052D01*
X177148Y667276D01*
X178284Y667425D01*
X179427Y667500D01*
X180573Y667500D01*
X181716Y667425D01*
X182852Y667276D01*
X183976Y667052D01*
X185083Y666755D01*
X186168Y666387D01*
X187226Y665949D01*
X188254Y665442D01*
X189246Y664869D01*
X190199Y664232D01*
X191108Y663535D01*
X191969Y662779D01*
X192779Y661969D01*
X193535Y661108D01*
X194232Y660199D01*
X194869Y659246D01*
X195442Y658254D01*
X195949Y657226D01*
X196387Y656168D01*
X196755Y655083D01*
X197052Y653976D01*
X197276Y652852D01*
X197425Y651716D01*
X197500Y650573D01*
X197500Y649427D01*
X537500Y49427D02*
X537425Y48284D01*
X537276Y47148D01*
X537052Y46024D01*
X536755Y44917D01*
X536387Y43832D01*
X535949Y42774D01*
X535442Y41746D01*
X534869Y40754D01*
X534232Y39801D01*
X533535Y38892D01*
X532779Y38031D01*
X531969Y37221D01*
X531108Y36465D01*
X530199Y35768D01*
X529246Y35131D01*
X528254Y34558D01*
X527226Y34051D01*
X526168Y33613D01*
X525083Y33245D01*
X523976Y32948D01*
X522852Y32725D01*
X521716Y32575D01*
X520573Y32500D01*
X519427Y32500D01*
X518284Y32575D01*
X517148Y32725D01*
X516024Y32948D01*
X514917Y33245D01*
X513832Y33613D01*
X512774Y34051D01*
X511746Y34558D01*
X510754Y35131D01*
X509801Y35768D01*
X508892Y36465D01*
X508031Y37221D01*
X507221Y38031D01*
X506465Y38892D01*
X505768Y39801D01*
X505131Y40754D01*
X504558Y41746D01*
X504051Y42774D01*
X503613Y43832D01*
X503245Y44917D01*
X502948Y46024D01*
X502725Y47148D01*
X502575Y48284D01*
X502500Y49427D01*
X502500Y50573D01*
X502575Y51716D01*
X502725Y52852D01*
X502948Y53976D01*
X503245Y55083D01*
X503613Y56168D01*
X504051Y57226D01*
X504558Y58254D01*
X505131Y59246D01*
X505768Y60199D01*
X506465Y61108D01*
X507221Y61969D01*
X508031Y62779D01*
X508892Y63535D01*
X509801Y64232D01*
X510754Y64869D01*
X511746Y65442D01*
X512774Y65949D01*
X513832Y66387D01*
X514917Y66755D01*
X516024Y67052D01*
X517148Y67276D01*
X518284Y67425D01*
X519427Y67500D01*
X520573Y67500D01*
X521716Y67425D01*
X522852Y67276D01*
X523976Y67052D01*
X525083Y66755D01*
X526168Y66387D01*
X527226Y65949D01*
X528254Y65442D01*
X529246Y64869D01*
X530199Y64232D01*
X531108Y63535D01*
X531969Y62779D01*
X532779Y61969D01*
X533535Y61108D01*
X534232Y60199D01*
X534869Y59246D01*
X535442Y58254D01*
X535949Y57226D01*
X536387Y56168D01*
X536755Y55083D01*
X537052Y53976D01*
X537276Y52852D01*
X537425Y51716D01*
X537500Y50573D01*
X537500Y49427D01*
X197500Y49427D02*
X197425Y48284D01*
X197276Y47148D01*
X197052Y46024D01*
X196755Y44917D01*
X196387Y43832D01*
X195949Y42774D01*
X195442Y41746D01*
X194869Y40754D01*
X194232Y39801D01*
X193535Y38892D01*
X192779Y38031D01*
X191969Y37221D01*
X191108Y36465D01*
X190199Y35768D01*
X189246Y35131D01*
X188254Y34558D01*
X187226Y34051D01*
X186168Y33613D01*
X185083Y33245D01*
X183976Y32948D01*
X182852Y32725D01*
X181716Y32575D01*
X180573Y32500D01*
X179427Y32500D01*
X178284Y32575D01*
X177148Y32725D01*
X176024Y32948D01*
X174917Y33245D01*
X173832Y33613D01*
X172774Y34051D01*
X171746Y34558D01*
X170754Y35131D01*
X169801Y35768D01*
X168892Y36465D01*
X168031Y37221D01*
X167221Y38031D01*
X166465Y38892D01*
X165768Y39801D01*
X165131Y40754D01*
X164558Y41746D01*
X164051Y42774D01*
X163613Y43832D01*
X163245Y44917D01*
X162948Y46024D01*
X162725Y47148D01*
X162575Y48284D01*
X162500Y49427D01*
X162500Y50573D01*
X162575Y51716D01*
X162725Y52852D01*
X162948Y53976D01*
X163245Y55083D01*
X163613Y56168D01*
X164051Y57226D01*
X164558Y58254D01*
X165131Y59246D01*
X165768Y60199D01*
X166465Y61108D01*
X167221Y61969D01*
X168031Y62779D01*
X168892Y63535D01*
X169801Y64232D01*
X170754Y64869D01*
X171746Y65442D01*
X172774Y65949D01*
X173832Y66387D01*
X174917Y66755D01*
X176024Y67052D01*
X177148Y67276D01*
X178284Y67425D01*
X179427Y67500D01*
X180573Y67500D01*
X181716Y67425D01*
X182852Y67276D01*
X183976Y67052D01*
X185083Y66755D01*
X186168Y66387D01*
X187226Y65949D01*
X188254Y65442D01*
X189246Y64869D01*
X190199Y64232D01*
X191108Y63535D01*
X191969Y62779D01*
X192779Y61969D01*
X193535Y61108D01*
X194232Y60199D01*
X194869Y59246D01*
X195442Y58254D01*
X195949Y57226D01*
X196387Y56168D01*
X196755Y55083D01*
X197052Y53976D01*
X197276Y52852D01*
X197425Y51716D01*
X197500Y50573D01*
X197500Y49427D01*
X589000Y394607D02*
X588932Y393824D01*
X588795Y393050D01*
X588592Y392291D01*
X588323Y391553D01*
X587991Y390840D01*
X587598Y390160D01*
X587147Y389516D01*
X586642Y388914D01*
X586086Y388358D01*
X585484Y387853D01*
X584840Y387402D01*
X584160Y387009D01*
X583447Y386677D01*
X582709Y386408D01*
X581950Y386205D01*
X581176Y386069D01*
X580393Y386000D01*
X579607Y386000D01*
X578824Y386069D01*
X578050Y386205D01*
X577291Y386408D01*
X576553Y386677D01*
X575840Y387009D01*
X575160Y387402D01*
X574516Y387853D01*
X573914Y388358D01*
X573358Y388914D01*
X572853Y389516D01*
X572402Y390160D01*
X572009Y390840D01*
X571677Y391553D01*
X571408Y392291D01*
X571205Y393050D01*
X571069Y393824D01*
X571000Y394607D01*
X571000Y395393D01*
X571069Y396176D01*
X571205Y396950D01*
X571408Y397709D01*
X571677Y398447D01*
X572009Y399160D01*
X572402Y399840D01*
X572853Y400484D01*
X573358Y401086D01*
X573914Y401642D01*
X574516Y402147D01*
X575160Y402598D01*
X575840Y402991D01*
X576553Y403323D01*
X577291Y403592D01*
X578050Y403795D01*
X578824Y403932D01*
X579607Y404000D01*
X580393Y404000D01*
X581176Y403932D01*
X581950Y403795D01*
X582709Y403592D01*
X583447Y403323D01*
X584160Y402991D01*
X584840Y402598D01*
X585484Y402147D01*
X586086Y401642D01*
X586642Y401086D01*
X587147Y400484D01*
X587598Y399840D01*
X587991Y399160D01*
X588323Y398447D01*
X588592Y397709D01*
X588795Y396950D01*
X588932Y396176D01*
X589000Y395393D01*
X589000Y394607D01*
X589000Y304607D02*
X588932Y303824D01*
X588795Y303050D01*
X588592Y302291D01*
X588323Y301553D01*
X587991Y300840D01*
X587598Y300160D01*
X587147Y299516D01*
X586642Y298914D01*
X586086Y298358D01*
X585484Y297853D01*
X584840Y297402D01*
X584160Y297009D01*
X583447Y296677D01*
X582709Y296408D01*
X581950Y296205D01*
X581176Y296069D01*
X580393Y296000D01*
X579607Y296000D01*
X578824Y296069D01*
X578050Y296205D01*
X577291Y296408D01*
X576553Y296677D01*
X575840Y297009D01*
X575160Y297402D01*
X574516Y297853D01*
X573914Y298358D01*
X573358Y298914D01*
X572853Y299516D01*
X572402Y300160D01*
X572009Y300840D01*
X571677Y301553D01*
X571408Y302291D01*
X571205Y303050D01*
X571069Y303824D01*
X571000Y304607D01*
X571000Y305393D01*
X571069Y306176D01*
X571205Y306950D01*
X571408Y307709D01*
X571677Y308447D01*
X572009Y309160D01*
X572402Y309840D01*
X572853Y310484D01*
X573358Y311086D01*
X573914Y311642D01*
X574516Y312147D01*
X575160Y312598D01*
X575840Y312991D01*
X576553Y313323D01*
X577291Y313592D01*
X578050Y313795D01*
X578824Y313932D01*
X579607Y314000D01*
X580393Y314000D01*
X581176Y313932D01*
X581950Y313795D01*
X582709Y313592D01*
X583447Y313323D01*
X584160Y312991D01*
X584840Y312598D01*
X585484Y312147D01*
X586086Y311642D01*
X586642Y311086D01*
X587147Y310484D01*
X587598Y309840D01*
X587991Y309160D01*
X588323Y308447D01*
X588592Y307709D01*
X588795Y306950D01*
X588932Y306176D01*
X589000Y305393D01*
X589000Y304607D01*
X394607Y341000D02*
X393824Y341069D01*
X393050Y341205D01*
X392291Y341408D01*
X391553Y341677D01*
X390840Y342009D01*
X390160Y342402D01*
X389516Y342853D01*
X388914Y343358D01*
X388358Y343914D01*
X387853Y344516D01*
X387402Y345160D01*
X387009Y345840D01*
X386677Y346553D01*
X386408Y347291D01*
X386205Y348050D01*
X386069Y348824D01*
X386000Y349607D01*
X386000Y350393D01*
X386069Y351176D01*
X386205Y351950D01*
X386408Y352709D01*
X386677Y353447D01*
X387009Y354160D01*
X387402Y354840D01*
X387853Y355484D01*
X388358Y356086D01*
X388914Y356642D01*
X389516Y357147D01*
X390160Y357598D01*
X390840Y357991D01*
X391553Y358323D01*
X392291Y358592D01*
X393050Y358795D01*
X393824Y358932D01*
X394607Y359000D01*
X395393Y359000D01*
X396176Y358932D01*
X396950Y358795D01*
X397709Y358592D01*
X398447Y358323D01*
X399160Y357991D01*
X399840Y357598D01*
X400484Y357147D01*
X401086Y356642D01*
X401642Y356086D01*
X402147Y355484D01*
X402598Y354840D01*
X402991Y354160D01*
X403323Y353447D01*
X403592Y352709D01*
X403795Y351950D01*
X403932Y351176D01*
X404000Y350393D01*
X404000Y349607D01*
X403932Y348824D01*
X403795Y348050D01*
X403592Y347291D01*
X403323Y346553D01*
X402991Y345840D01*
X402598Y345160D01*
X402147Y344516D01*
X401642Y343914D01*
X401086Y343358D01*
X400484Y342853D01*
X399840Y342402D01*
X399160Y342009D01*
X398447Y341677D01*
X397709Y341408D01*
X396950Y341205D01*
X396176Y341069D01*
X395393Y341000D01*
X394607Y341000D01*
X304607Y341000D02*
X303824Y341069D01*
X303050Y341205D01*
X302291Y341408D01*
X301553Y341677D01*
X300840Y342009D01*
X300160Y342402D01*
X299516Y342853D01*
X298914Y343358D01*
X298358Y343914D01*
X297853Y344516D01*
X297402Y345160D01*
X297009Y345840D01*
X296677Y346553D01*
X296408Y347291D01*
X296205Y348050D01*
X296069Y348824D01*
X296000Y349607D01*
X296000Y350393D01*
X296069Y351176D01*
X296205Y351950D01*
X296408Y352709D01*
X296677Y353447D01*
X297009Y354160D01*
X297402Y354840D01*
X297853Y355484D01*
X298358Y356086D01*
X298914Y356642D01*
X299516Y357147D01*
X300160Y357598D01*
X300840Y357991D01*
X301553Y358323D01*
X302291Y358592D01*
X303050Y358795D01*
X303824Y358932D01*
X304607Y359000D01*
X305393Y359000D01*
X306176Y358932D01*
X306950Y358795D01*
X307709Y358592D01*
X308447Y358323D01*
X309160Y357991D01*
X309840Y357598D01*
X310484Y357147D01*
X311086Y356642D01*
X311642Y356086D01*
X312147Y355484D01*
X312598Y354840D01*
X312991Y354160D01*
X313323Y353447D01*
X313592Y352709D01*
X313795Y351950D01*
X313932Y351176D01*
X314000Y350393D01*
X314000Y349607D01*
X313932Y348824D01*
X313795Y348050D01*
X313592Y347291D01*
X313323Y346553D01*
X312991Y345840D01*
X312598Y345160D01*
X312147Y344516D01*
X311642Y343914D01*
X311086Y343358D01*
X310484Y342853D01*
X309840Y342402D01*
X309160Y342009D01*
X308447Y341677D01*
X307709Y341408D01*
X306950Y341205D01*
X306176Y341069D01*
X305393Y341000D01*
X304607Y341000D01*
X111000Y305393D02*
X111069Y306176D01*
X111205Y306950D01*
X111408Y307709D01*
X111677Y308447D01*
X112009Y309160D01*
X112402Y309840D01*
X112853Y310484D01*
X113358Y311086D01*
X113914Y311642D01*
X114516Y312147D01*
X115160Y312598D01*
X115840Y312991D01*
X116553Y313323D01*
X117291Y313592D01*
X118050Y313795D01*
X118824Y313932D01*
X119607Y314000D01*
X120393Y314000D01*
X121176Y313932D01*
X121950Y313795D01*
X122709Y313592D01*
X123447Y313323D01*
X124160Y312991D01*
X124840Y312598D01*
X125484Y312147D01*
X126086Y311642D01*
X126642Y311086D01*
X127147Y310484D01*
X127598Y309840D01*
X127991Y309160D01*
X128323Y308447D01*
X128592Y307709D01*
X128795Y306950D01*
X128932Y306176D01*
X129000Y305393D01*
X129000Y304607D01*
X128932Y303824D01*
X128795Y303050D01*
X128592Y302291D01*
X128323Y301553D01*
X127991Y300840D01*
X127598Y300160D01*
X127147Y299516D01*
X126642Y298914D01*
X126086Y298358D01*
X125484Y297853D01*
X124840Y297402D01*
X124160Y297009D01*
X123447Y296677D01*
X122709Y296408D01*
X121950Y296205D01*
X121176Y296069D01*
X120393Y296000D01*
X119607Y296000D01*
X118824Y296069D01*
X118050Y296205D01*
X117291Y296408D01*
X116553Y296677D01*
X115840Y297009D01*
X115160Y297402D01*
X114516Y297853D01*
X113914Y298358D01*
X113358Y298914D01*
X112853Y299516D01*
X112402Y300160D01*
X112009Y300840D01*
X111677Y301553D01*
X111408Y302291D01*
X111205Y303050D01*
X111069Y303824D01*
X111000Y304607D01*
X111000Y305393D01*
X111000Y395393D02*
X111069Y396176D01*
X111205Y396950D01*
X111408Y397709D01*
X111677Y398447D01*
X112009Y399160D01*
X112402Y399840D01*
X112853Y400484D01*
X113358Y401086D01*
X113914Y401642D01*
X114516Y402147D01*
X115160Y402598D01*
X115840Y402991D01*
X116553Y403323D01*
X117291Y403592D01*
X118050Y403795D01*
X118824Y403932D01*
X119607Y404000D01*
X120393Y404000D01*
X121176Y403932D01*
X121950Y403795D01*
X122709Y403592D01*
X123447Y403323D01*
X124160Y402991D01*
X124840Y402598D01*
X125484Y402147D01*
X126086Y401642D01*
X126642Y401086D01*
X127147Y400484D01*
X127598Y399840D01*
X127991Y399160D01*
X128323Y398447D01*
X128592Y397709D01*
X128795Y396950D01*
X128932Y396176D01*
X129000Y395393D01*
X129000Y394607D01*
X128932Y393824D01*
X128795Y393050D01*
X128592Y392291D01*
X128323Y391553D01*
X127991Y390840D01*
X127598Y390160D01*
X127147Y389516D01*
X126642Y388914D01*
X126086Y388358D01*
X125484Y387853D01*
X124840Y387402D01*
X124160Y387009D01*
X123447Y386677D01*
X122709Y386408D01*
X121950Y386205D01*
X121176Y386069D01*
X120393Y386000D01*
X119607Y386000D01*
X118824Y386069D01*
X118050Y386205D01*
X117291Y386408D01*
X116553Y386677D01*
X115840Y387009D01*
X115160Y387402D01*
X114516Y387853D01*
X113914Y388358D01*
X113358Y388914D01*
X112853Y389516D01*
X112402Y390160D01*
X112009Y390840D01*
X111677Y391553D01*
X111408Y392291D01*
X111205Y393050D01*
X111069Y393824D01*
X111000Y394607D01*
X111000Y395393D01*
X359000Y169607D02*
X358932Y168824D01*
X358795Y168050D01*
X358592Y167291D01*
X358323Y166553D01*
X357991Y165840D01*
X357598Y165160D01*
X357147Y164516D01*
X356642Y163914D01*
X356086Y163358D01*
X355484Y162853D01*
X354840Y162402D01*
X354160Y162009D01*
X353447Y161677D01*
X352709Y161408D01*
X351950Y161205D01*
X351176Y161069D01*
X350393Y161000D01*
X349607Y161000D01*
X348824Y161069D01*
X348050Y161205D01*
X347291Y161408D01*
X346553Y161677D01*
X345840Y162009D01*
X345160Y162402D01*
X344516Y162853D01*
X343914Y163358D01*
X343358Y163914D01*
X342853Y164516D01*
X342402Y165160D01*
X342009Y165840D01*
X341677Y166553D01*
X341408Y167291D01*
X341205Y168050D01*
X341069Y168824D01*
X341000Y169607D01*
X341000Y170393D01*
X341069Y171176D01*
X341205Y171950D01*
X341408Y172709D01*
X341677Y173447D01*
X342009Y174160D01*
X342402Y174840D01*
X342853Y175484D01*
X343358Y176086D01*
X343914Y176642D01*
X344516Y177147D01*
X345160Y177598D01*
X345840Y177991D01*
X346553Y178323D01*
X347291Y178592D01*
X348050Y178795D01*
X348824Y178932D01*
X349607Y179000D01*
X350393Y179000D01*
X351176Y178932D01*
X351950Y178795D01*
X352709Y178592D01*
X353447Y178323D01*
X354160Y177991D01*
X354840Y177598D01*
X355484Y177147D01*
X356086Y176642D01*
X356642Y176086D01*
X357147Y175484D01*
X357598Y174840D01*
X357991Y174160D01*
X358323Y173447D01*
X358592Y172709D01*
X358795Y171950D01*
X358932Y171176D01*
X359000Y170393D01*
X359000Y169607D01*
X359000Y79607D02*
X358932Y78824D01*
X358795Y78050D01*
X358592Y77291D01*
X358323Y76553D01*
X357991Y75840D01*
X357598Y75160D01*
X357147Y74516D01*
X356642Y73914D01*
X356086Y73358D01*
X355484Y72853D01*
X354840Y72402D01*
X354160Y72009D01*
X353447Y71677D01*
X352709Y71408D01*
X351950Y71205D01*
X351176Y71069D01*
X350393Y71000D01*
X349607Y71000D01*
X348824Y71069D01*
X348050Y71205D01*
X347291Y71408D01*
X346553Y71677D01*
X345840Y72009D01*
X345160Y72402D01*
X344516Y72853D01*
X343914Y73358D01*
X343358Y73914D01*
X342853Y74516D01*
X342402Y75160D01*
X342009Y75840D01*
X341677Y76553D01*
X341408Y77291D01*
X341205Y78050D01*
X341069Y78824D01*
X341000Y79607D01*
X341000Y80393D01*
X341069Y81176D01*
X341205Y81950D01*
X341408Y82709D01*
X341677Y83447D01*
X342009Y84160D01*
X342402Y84840D01*
X342853Y85484D01*
X343358Y86086D01*
X343914Y86642D01*
X344516Y87147D01*
X345160Y87598D01*
X345840Y87991D01*
X346553Y88323D01*
X347291Y88592D01*
X348050Y88795D01*
X348824Y88932D01*
X349607Y89000D01*
X350393Y89000D01*
X351176Y88932D01*
X351950Y88795D01*
X352709Y88592D01*
X353447Y88323D01*
X354160Y87991D01*
X354840Y87598D01*
X355484Y87147D01*
X356086Y86642D01*
X356642Y86086D01*
X357147Y85484D01*
X357598Y84840D01*
X357991Y84160D01*
X358323Y83447D01*
X358592Y82709D01*
X358795Y81950D01*
X358932Y81176D01*
X359000Y80393D01*
X359000Y79607D01*
X341000Y530393D02*
X341069Y531176D01*
X341205Y531950D01*
X341408Y532709D01*
X341677Y533447D01*
X342009Y534160D01*
X342402Y534840D01*
X342853Y535484D01*
X343358Y536086D01*
X343914Y536642D01*
X344516Y537147D01*
X345160Y537598D01*
X345840Y537991D01*
X346553Y538323D01*
X347291Y538592D01*
X348050Y538795D01*
X348824Y538932D01*
X349607Y539000D01*
X350393Y539000D01*
X351176Y538932D01*
X351950Y538795D01*
X352709Y538592D01*
X353447Y538323D01*
X354160Y537991D01*
X354840Y537598D01*
X355484Y537147D01*
X356086Y536642D01*
X356642Y536086D01*
X357147Y535484D01*
X357598Y534840D01*
X357991Y534160D01*
X358323Y533447D01*
X358592Y532709D01*
X358795Y531950D01*
X358932Y531176D01*
X359000Y530393D01*
X359000Y529607D01*
X358932Y528824D01*
X358795Y528050D01*
X358592Y527291D01*
X358323Y526553D01*
X357991Y525840D01*
X357598Y525160D01*
X357147Y524516D01*
X356642Y523914D01*
X356086Y523358D01*
X355484Y522853D01*
X354840Y522402D01*
X354160Y522009D01*
X353447Y521677D01*
X352709Y521408D01*
X351950Y521205D01*
X351176Y521069D01*
X350393Y521000D01*
X349607Y521000D01*
X348824Y521069D01*
X348050Y521205D01*
X347291Y521408D01*
X346553Y521677D01*
X345840Y522009D01*
X345160Y522402D01*
X344516Y522853D01*
X343914Y523358D01*
X343358Y523914D01*
X342853Y524516D01*
X342402Y525160D01*
X342009Y525840D01*
X341677Y526553D01*
X341408Y527291D01*
X341205Y528050D01*
X341069Y528824D01*
X341000Y529607D01*
X341000Y530393D01*
X341000Y620393D02*
X341069Y621176D01*
X341205Y621950D01*
X341408Y622709D01*
X341677Y623447D01*
X342009Y624160D01*
X342402Y624840D01*
X342853Y625484D01*
X343358Y626086D01*
X343914Y626642D01*
X344516Y627147D01*
X345160Y627598D01*
X345840Y627991D01*
X346553Y628323D01*
X347291Y628592D01*
X348050Y628795D01*
X348824Y628932D01*
X349607Y629000D01*
X350393Y629000D01*
X351176Y628932D01*
X351950Y628795D01*
X352709Y628592D01*
X353447Y628323D01*
X354160Y627991D01*
X354840Y627598D01*
X355484Y627147D01*
X356086Y626642D01*
X356642Y626086D01*
X357147Y625484D01*
X357598Y624840D01*
X357991Y624160D01*
X358323Y623447D01*
X358592Y622709D01*
X358795Y621950D01*
X358932Y621176D01*
X359000Y620393D01*
X359000Y619607D01*
X358932Y618824D01*
X358795Y618050D01*
X358592Y617291D01*
X358323Y616553D01*
X357991Y615840D01*
X357598Y615160D01*
X357147Y614516D01*
X356642Y613914D01*
X356086Y613358D01*
X355484Y612853D01*
X354840Y612402D01*
X354160Y612009D01*
X353447Y611677D01*
X352709Y611408D01*
X351950Y611205D01*
X351176Y611069D01*
X350393Y611000D01*
X349607Y611000D01*
X348824Y611069D01*
X348050Y611205D01*
X347291Y611408D01*
X346553Y611677D01*
X345840Y612009D01*
X345160Y612402D01*
X344516Y612853D01*
X343914Y613358D01*
X343358Y613914D01*
X342853Y614516D01*
X342402Y615160D01*
X342009Y615840D01*
X341677Y616553D01*
X341408Y617291D01*
X341205Y618050D01*
X341069Y618824D01*
X341000Y619607D01*
X341000Y620393D01*
M02*
