G04 EAGLE Gerber RS-274X export*
G75*
%MOMM*%
%FSLAX34Y34*%
%LPD*%
%INSoldermask Top*%
%IPPOS*%
%AMOC8*
5,1,8,0,0,1.08239X$1,22.5*%
G01*
%ADD10C,3.703200*%
%ADD11P,2.336880X8X202.500000*%
%ADD12P,2.556822X8X202.500000*%
%ADD13R,1.803200X2.903200*%
%ADD14R,1.203200X1.603200*%
%ADD15C,1.875000*%
%ADD16C,2.078200*%
%ADD17C,2.003200*%
%ADD18C,1.524000*%
%ADD19C,1.727200*%
%ADD20R,2.403200X1.703200*%
%ADD21R,1.703200X2.403200*%
%ADD22R,1.403200X2.003200*%
%ADD23R,2.003200X1.403200*%
%ADD24R,1.103200X2.203200*%
%ADD25R,2.203200X1.103200*%
%ADD26R,1.533200X1.533200*%
%ADD27C,0.708000*%
%ADD28C,0.911200*%
%ADD29R,1.701800X2.209800*%
%ADD30R,4.013200X2.209800*%
%ADD31C,2.500000*%
%ADD32C,0.756400*%
%ADD33C,0.959600*%


D10*
X520000Y650000D03*
X180000Y650000D03*
X520000Y50000D03*
X180000Y50000D03*
D11*
X532512Y490000D03*
D12*
X532512Y490000D03*
D11*
X467488Y490000D03*
D12*
X467488Y490000D03*
D13*
X426000Y65000D03*
X454000Y65000D03*
D14*
X35000Y449000D03*
X25500Y471000D03*
X44500Y471000D03*
D15*
X642500Y327500D03*
D16*
X642500Y327500D03*
D15*
X517500Y327500D03*
D16*
X517500Y327500D03*
D15*
X642500Y372500D03*
D16*
X642500Y372500D03*
D15*
X517500Y372500D03*
D16*
X517500Y372500D03*
D17*
X580000Y395000D03*
X580000Y305000D03*
D15*
X327500Y287500D03*
D16*
X327500Y287500D03*
D15*
X327500Y412500D03*
D16*
X327500Y412500D03*
D15*
X372500Y287500D03*
D16*
X372500Y287500D03*
D15*
X372500Y412500D03*
D16*
X372500Y412500D03*
D17*
X395000Y350000D03*
X305000Y350000D03*
D15*
X57500Y372500D03*
D16*
X57500Y372500D03*
D15*
X182500Y372500D03*
D16*
X182500Y372500D03*
D15*
X57500Y327500D03*
D16*
X57500Y327500D03*
D15*
X182500Y327500D03*
D16*
X182500Y327500D03*
D17*
X120000Y305000D03*
X120000Y395000D03*
D15*
X412500Y102500D03*
D16*
X412500Y102500D03*
D15*
X287500Y102500D03*
D16*
X287500Y102500D03*
D15*
X412500Y147500D03*
D16*
X412500Y147500D03*
D15*
X287500Y147500D03*
D16*
X287500Y147500D03*
D17*
X350000Y170000D03*
X350000Y80000D03*
D15*
X287500Y597500D03*
D16*
X287500Y597500D03*
D15*
X412500Y597500D03*
D16*
X412500Y597500D03*
D15*
X287500Y552500D03*
D16*
X287500Y552500D03*
D15*
X412500Y552500D03*
D16*
X412500Y552500D03*
D17*
X350000Y530000D03*
X350000Y620000D03*
D18*
X147620Y486500D02*
X132380Y486500D01*
D19*
X147620Y486500D01*
D18*
X147620Y511900D02*
X132380Y511900D01*
D19*
X147620Y511900D01*
D18*
X147620Y537300D02*
X132380Y537300D01*
D19*
X147620Y537300D01*
D18*
X147620Y562700D02*
X132380Y562700D01*
D19*
X147620Y562700D01*
D18*
X147620Y588100D02*
X132380Y588100D01*
D19*
X147620Y588100D01*
D18*
X147620Y613500D02*
X132380Y613500D01*
D19*
X147620Y613500D01*
D20*
X670000Y334500D03*
X670000Y365500D03*
X260000Y365500D03*
X260000Y334500D03*
X440000Y365500D03*
X440000Y334500D03*
X30000Y334500D03*
X30000Y365500D03*
D21*
X334500Y30000D03*
X365500Y30000D03*
X334500Y670000D03*
X365500Y670000D03*
D18*
X125720Y19200D02*
X110480Y19200D01*
D19*
X125720Y19200D01*
D18*
X125720Y44600D02*
X110480Y44600D01*
D19*
X125720Y44600D01*
D18*
X125720Y70000D02*
X110480Y70000D01*
D19*
X125720Y70000D01*
D18*
X125720Y95400D02*
X110480Y95400D01*
D19*
X125720Y95400D01*
D18*
X125720Y120800D02*
X110480Y120800D01*
D19*
X125720Y120800D01*
D18*
X125720Y164200D02*
X110480Y164200D01*
D19*
X125720Y164200D01*
D18*
X125720Y189600D02*
X110480Y189600D01*
D19*
X125720Y189600D01*
D18*
X125720Y215000D02*
X110480Y215000D01*
D19*
X125720Y215000D01*
D18*
X125720Y240400D02*
X110480Y240400D01*
D19*
X125720Y240400D01*
D18*
X125720Y265800D02*
X110480Y265800D01*
D19*
X125720Y265800D01*
D22*
X30000Y414990D03*
X30000Y385010D03*
X670000Y414990D03*
X670000Y385010D03*
X260000Y414990D03*
X260000Y385010D03*
X440000Y414990D03*
X440000Y385010D03*
D23*
X285010Y30000D03*
X314990Y30000D03*
X285010Y670000D03*
X314990Y670000D03*
D22*
X30000Y285010D03*
X30000Y314990D03*
X670000Y285010D03*
X670000Y314990D03*
X375000Y474990D03*
X375000Y445010D03*
X350000Y225010D03*
X350000Y254990D03*
X350000Y474990D03*
X350000Y445010D03*
X375000Y225010D03*
X375000Y254990D03*
D14*
X220000Y361000D03*
X229500Y339000D03*
X210500Y339000D03*
X480000Y361000D03*
X489500Y339000D03*
X470500Y339000D03*
D24*
X617600Y265000D03*
X604900Y265000D03*
X592200Y265000D03*
X579500Y265000D03*
X566800Y265000D03*
X554100Y265000D03*
X541400Y265000D03*
X528700Y265000D03*
X516000Y265000D03*
X503300Y265000D03*
X490600Y265000D03*
X477900Y265000D03*
X465200Y265000D03*
X452500Y265000D03*
D25*
X442500Y237150D03*
X442500Y224450D03*
X442500Y211750D03*
X442500Y199050D03*
X442500Y186350D03*
X442500Y173650D03*
X442500Y160950D03*
X442500Y148250D03*
X442500Y135550D03*
X442500Y122850D03*
D24*
X452500Y95000D03*
X465200Y95000D03*
X477900Y95000D03*
X490600Y95000D03*
X503300Y95000D03*
X516000Y95000D03*
X528700Y95000D03*
X541400Y95000D03*
X554100Y95000D03*
X566800Y95000D03*
X579500Y95000D03*
X592200Y95000D03*
X604900Y95000D03*
X617600Y95000D03*
D26*
X560950Y208350D03*
X560950Y190000D03*
X560950Y171650D03*
X542600Y208350D03*
X542600Y190000D03*
X542600Y171650D03*
X524250Y208350D03*
X524250Y190000D03*
X524250Y171650D03*
D27*
X560950Y199175D03*
D28*
X560950Y199175D03*
D27*
X560950Y180825D03*
D28*
X560950Y180825D03*
D27*
X551775Y208350D03*
D28*
X551775Y208350D03*
D27*
X551775Y190000D03*
D28*
X551775Y190000D03*
D27*
X551775Y171650D03*
D28*
X551775Y171650D03*
D27*
X542600Y199175D03*
D28*
X542600Y199175D03*
D27*
X542600Y180825D03*
D28*
X542600Y180825D03*
D27*
X533425Y208350D03*
D28*
X533425Y208350D03*
D27*
X533425Y190000D03*
D28*
X533425Y190000D03*
D27*
X533425Y171650D03*
D28*
X533425Y171650D03*
D27*
X524250Y199175D03*
D28*
X524250Y199175D03*
D27*
X524250Y180825D03*
D28*
X524250Y180825D03*
D18*
X574280Y613500D02*
X589520Y613500D01*
D19*
X574280Y613500D01*
D18*
X574280Y588100D02*
X589520Y588100D01*
D19*
X574280Y588100D01*
D18*
X574280Y562700D02*
X589520Y562700D01*
D19*
X574280Y562700D01*
D18*
X574280Y537300D02*
X589520Y537300D01*
D19*
X574280Y537300D01*
D18*
X574280Y511900D02*
X589520Y511900D01*
D19*
X574280Y511900D01*
D18*
X574280Y486500D02*
X589520Y486500D01*
D19*
X574280Y486500D01*
D29*
X47394Y498504D03*
X70254Y498504D03*
X93114Y498504D03*
D30*
X70000Y561496D03*
D31*
X40000Y40000D03*
X660000Y660000D03*
X40000Y660000D03*
D32*
X125000Y650000D03*
D33*
X125000Y650000D03*
D32*
X220000Y460000D03*
D33*
X220000Y460000D03*
D32*
X220000Y230000D03*
D33*
X220000Y230000D03*
D32*
X600000Y50000D03*
D33*
X600000Y50000D03*
D32*
X480000Y635000D03*
D33*
X480000Y635000D03*
D32*
X250000Y310000D03*
D33*
X250000Y310000D03*
D32*
X435000Y310000D03*
D33*
X435000Y310000D03*
D32*
X428863Y259917D03*
D33*
X428863Y259917D03*
D32*
X474348Y129072D03*
D33*
X474348Y129072D03*
D32*
X476711Y111351D03*
D33*
X476711Y111351D03*
D32*
X503293Y113714D03*
D33*
X503293Y113714D03*
D32*
X497672Y124042D03*
D33*
X497672Y124042D03*
D32*
X500931Y78718D03*
D33*
X500931Y78718D03*
D32*
X408188Y250170D03*
D33*
X408188Y250170D03*
D32*
X420002Y123756D03*
D33*
X420002Y123756D03*
D32*
X627176Y295951D03*
D33*
X627176Y295951D03*
D32*
X570340Y112532D03*
D33*
X570340Y112532D03*
D32*
X585404Y114009D03*
D33*
X585404Y114009D03*
D32*
X565319Y239242D03*
D33*
X565319Y239242D03*
D32*
X169241Y408778D03*
D33*
X169241Y408778D03*
D32*
X415572Y291520D03*
D33*
X415572Y291520D03*
D32*
X525445Y305698D03*
D33*
X525445Y305698D03*
D32*
X284727Y425909D03*
D33*
X284727Y425909D03*
D32*
X552619Y288271D03*
D33*
X552619Y288271D03*
D32*
X548484Y120802D03*
D33*
X548484Y120802D03*
D32*
X271140Y209558D03*
D33*
X271140Y209558D03*
D32*
X238651Y351183D03*
D33*
X238651Y351183D03*
D32*
X238651Y449833D03*
D33*
X238651Y449833D03*
D32*
X440086Y278081D03*
D33*
X440086Y278081D03*
D32*
X458782Y232153D03*
D33*
X458782Y232153D03*
D32*
X289748Y465783D03*
D33*
X289748Y465783D03*
D32*
X220339Y383377D03*
D33*
X220339Y383377D03*
D32*
X279532Y566674D03*
D33*
X279532Y566674D03*
D32*
X390761Y430635D03*
D33*
X390761Y430635D03*
D32*
X508905Y284727D03*
D33*
X508905Y284727D03*
D32*
X137342Y282660D03*
D33*
X137342Y282660D03*
D32*
X471395Y285760D03*
D33*
X471395Y285760D03*
M02*
