G04 EAGLE Gerber RS-274X export*
G75*
%MOMM*%
%FSLAX34Y34*%
%LPD*%
%INSoldermask Bottom*%
%IPPOS*%
%AMOC8*
5,1,8,0,0,1.08239X$1,22.5*%
G01*
%ADD10C,3.703200*%
%ADD11P,2.336880X8X202.500000*%
%ADD12P,2.556822X8X202.500000*%
%ADD13R,2.903200X1.803200*%
%ADD14R,1.803200X2.903200*%
%ADD15R,1.503200X0.903200*%
%ADD16R,2.403200X0.803200*%
%ADD17C,1.875000*%
%ADD18C,2.078200*%
%ADD19C,2.003200*%
%ADD20C,1.524000*%
%ADD21C,1.727200*%
%ADD22R,1.403200X2.003200*%
%ADD23R,2.003200X1.403200*%
%ADD24R,1.203200X1.603200*%
%ADD25C,0.708000*%
%ADD26C,0.911200*%
%ADD27C,2.500000*%
%ADD28C,0.756400*%
%ADD29C,0.959600*%


D10*
X520000Y650000D03*
X180000Y650000D03*
X520000Y50000D03*
X180000Y50000D03*
D11*
X532512Y490000D03*
D12*
X532512Y490000D03*
D11*
X467488Y490000D03*
D12*
X467488Y490000D03*
D13*
X220000Y619000D03*
X220000Y591000D03*
X500000Y211000D03*
X500000Y239000D03*
X260000Y619000D03*
X260000Y591000D03*
X585000Y211000D03*
X585000Y239000D03*
D14*
X236000Y60000D03*
X264000Y60000D03*
X544000Y580000D03*
X516000Y580000D03*
D13*
X175000Y481000D03*
X175000Y509000D03*
D14*
X466000Y580000D03*
X494000Y580000D03*
D15*
X267500Y548650D03*
X267500Y535950D03*
X267500Y561350D03*
X267500Y574050D03*
X212500Y548650D03*
X212500Y535950D03*
X212500Y561350D03*
X212500Y574050D03*
D16*
X260000Y185000D03*
X260000Y172300D03*
X260000Y159600D03*
X260000Y146900D03*
X260000Y134200D03*
X260000Y121500D03*
X260000Y108800D03*
X260000Y96100D03*
X260000Y83400D03*
X169900Y83400D03*
X169900Y96100D03*
X169900Y108800D03*
X169900Y121500D03*
X169900Y134200D03*
X169900Y146900D03*
X169900Y159600D03*
X169900Y172300D03*
X169900Y185000D03*
D17*
X642500Y327500D03*
D18*
X642500Y327500D03*
D17*
X517500Y327500D03*
D18*
X517500Y327500D03*
D17*
X642500Y372500D03*
D18*
X642500Y372500D03*
D17*
X517500Y372500D03*
D18*
X517500Y372500D03*
D19*
X580000Y395000D03*
X580000Y305000D03*
D17*
X327500Y287500D03*
D18*
X327500Y287500D03*
D17*
X327500Y412500D03*
D18*
X327500Y412500D03*
D17*
X372500Y287500D03*
D18*
X372500Y287500D03*
D17*
X372500Y412500D03*
D18*
X372500Y412500D03*
D19*
X395000Y350000D03*
X305000Y350000D03*
D17*
X57500Y372500D03*
D18*
X57500Y372500D03*
D17*
X182500Y372500D03*
D18*
X182500Y372500D03*
D17*
X57500Y327500D03*
D18*
X57500Y327500D03*
D17*
X182500Y327500D03*
D18*
X182500Y327500D03*
D19*
X120000Y305000D03*
X120000Y395000D03*
D17*
X412500Y102500D03*
D18*
X412500Y102500D03*
D17*
X287500Y102500D03*
D18*
X287500Y102500D03*
D17*
X412500Y147500D03*
D18*
X412500Y147500D03*
D17*
X287500Y147500D03*
D18*
X287500Y147500D03*
D19*
X350000Y170000D03*
X350000Y80000D03*
D17*
X287500Y597500D03*
D18*
X287500Y597500D03*
D17*
X412500Y597500D03*
D18*
X412500Y597500D03*
D17*
X287500Y552500D03*
D18*
X287500Y552500D03*
D17*
X412500Y552500D03*
D18*
X412500Y552500D03*
D19*
X350000Y530000D03*
X350000Y620000D03*
D20*
X147620Y486500D02*
X132380Y486500D01*
D21*
X147620Y486500D01*
D20*
X147620Y511900D02*
X132380Y511900D01*
D21*
X147620Y511900D01*
D20*
X147620Y537300D02*
X132380Y537300D01*
D21*
X147620Y537300D01*
D20*
X147620Y562700D02*
X132380Y562700D01*
D21*
X147620Y562700D01*
D20*
X147620Y588100D02*
X132380Y588100D01*
D21*
X147620Y588100D01*
D20*
X147620Y613500D02*
X132380Y613500D01*
D21*
X147620Y613500D01*
D20*
X125720Y19200D02*
X110480Y19200D01*
D21*
X125720Y19200D01*
D20*
X125720Y44600D02*
X110480Y44600D01*
D21*
X125720Y44600D01*
D20*
X125720Y70000D02*
X110480Y70000D01*
D21*
X125720Y70000D01*
D20*
X125720Y95400D02*
X110480Y95400D01*
D21*
X125720Y95400D01*
D20*
X125720Y120800D02*
X110480Y120800D01*
D21*
X125720Y120800D01*
D20*
X125720Y164200D02*
X110480Y164200D01*
D21*
X125720Y164200D01*
D20*
X125720Y189600D02*
X110480Y189600D01*
D21*
X125720Y189600D01*
D20*
X125720Y215000D02*
X110480Y215000D01*
D21*
X125720Y215000D01*
D20*
X125720Y240400D02*
X110480Y240400D01*
D21*
X125720Y240400D01*
D20*
X125720Y265800D02*
X110480Y265800D01*
D21*
X125720Y265800D01*
D22*
X190000Y584990D03*
X190000Y555010D03*
X160000Y365010D03*
X160000Y394990D03*
D23*
X235010Y520000D03*
X264990Y520000D03*
X494990Y610000D03*
X465010Y610000D03*
X364990Y370000D03*
X335010Y370000D03*
D22*
X540000Y365010D03*
X540000Y394990D03*
X160000Y305010D03*
X160000Y334990D03*
X540000Y334990D03*
X540000Y305010D03*
D23*
X335010Y320000D03*
X364990Y320000D03*
D24*
X480000Y361000D03*
X470500Y339000D03*
X489500Y339000D03*
D25*
X560950Y199175D03*
D26*
X560950Y199175D03*
D25*
X560950Y180825D03*
D26*
X560950Y180825D03*
D25*
X551775Y208350D03*
D26*
X551775Y208350D03*
D25*
X551775Y190000D03*
D26*
X551775Y190000D03*
D25*
X551775Y171650D03*
D26*
X551775Y171650D03*
D25*
X542600Y199175D03*
D26*
X542600Y199175D03*
D25*
X542600Y180825D03*
D26*
X542600Y180825D03*
D25*
X533425Y208350D03*
D26*
X533425Y208350D03*
D25*
X533425Y190000D03*
D26*
X533425Y190000D03*
D25*
X533425Y171650D03*
D26*
X533425Y171650D03*
D25*
X524250Y199175D03*
D26*
X524250Y199175D03*
D25*
X524250Y180825D03*
D26*
X524250Y180825D03*
D20*
X574280Y613500D02*
X589520Y613500D01*
D21*
X574280Y613500D01*
D20*
X574280Y588100D02*
X589520Y588100D01*
D21*
X574280Y588100D01*
D20*
X574280Y562700D02*
X589520Y562700D01*
D21*
X574280Y562700D01*
D20*
X574280Y537300D02*
X589520Y537300D01*
D21*
X574280Y537300D01*
D20*
X574280Y511900D02*
X589520Y511900D01*
D21*
X574280Y511900D01*
D20*
X574280Y486500D02*
X589520Y486500D01*
D21*
X574280Y486500D01*
D27*
X40000Y40000D03*
X40000Y660000D03*
X660000Y660000D03*
D28*
X125000Y650000D03*
D29*
X125000Y650000D03*
D28*
X220000Y460000D03*
D29*
X220000Y460000D03*
D28*
X220000Y230000D03*
D29*
X220000Y230000D03*
D28*
X600000Y50000D03*
D29*
X600000Y50000D03*
D28*
X480000Y635000D03*
D29*
X480000Y635000D03*
D28*
X250000Y310000D03*
D29*
X250000Y310000D03*
D28*
X435000Y310000D03*
D29*
X435000Y310000D03*
D28*
X428863Y259917D03*
D29*
X428863Y259917D03*
D28*
X474348Y129072D03*
D29*
X474348Y129072D03*
D28*
X476711Y111351D03*
D29*
X476711Y111351D03*
D28*
X503293Y113714D03*
D29*
X503293Y113714D03*
D28*
X497672Y124042D03*
D29*
X497672Y124042D03*
D28*
X500931Y78718D03*
D29*
X500931Y78718D03*
D28*
X408188Y250170D03*
D29*
X408188Y250170D03*
D28*
X420002Y123756D03*
D29*
X420002Y123756D03*
D28*
X627176Y295951D03*
D29*
X627176Y295951D03*
D28*
X570340Y112532D03*
D29*
X570340Y112532D03*
D28*
X585404Y114009D03*
D29*
X585404Y114009D03*
D28*
X565319Y239242D03*
D29*
X565319Y239242D03*
D28*
X169241Y408778D03*
D29*
X169241Y408778D03*
D28*
X415572Y291520D03*
D29*
X415572Y291520D03*
D28*
X525445Y305698D03*
D29*
X525445Y305698D03*
D28*
X284727Y425909D03*
D29*
X284727Y425909D03*
D28*
X552619Y288271D03*
D29*
X552619Y288271D03*
D28*
X548484Y120802D03*
D29*
X548484Y120802D03*
D28*
X271140Y209558D03*
D29*
X271140Y209558D03*
D28*
X238651Y351183D03*
D29*
X238651Y351183D03*
D28*
X238651Y449833D03*
D29*
X238651Y449833D03*
D28*
X440086Y278081D03*
D29*
X440086Y278081D03*
D28*
X458782Y232153D03*
D29*
X458782Y232153D03*
D28*
X289748Y465783D03*
D29*
X289748Y465783D03*
D28*
X220339Y383377D03*
D29*
X220339Y383377D03*
D28*
X279532Y566674D03*
D29*
X279532Y566674D03*
D28*
X390761Y430635D03*
D29*
X390761Y430635D03*
D28*
X508905Y284727D03*
D29*
X508905Y284727D03*
D28*
X137342Y282660D03*
D29*
X137342Y282660D03*
D28*
X471395Y285760D03*
D29*
X471395Y285760D03*
M02*
