G04 EAGLE Gerber RS-274X export*
G75*
%MOMM*%
%FSLAX34Y34*%
%LPD*%
%INSolderpaste Bottom*%
%IPPOS*%
%AMOC8*
5,1,8,0,0,1.08239X$1,22.5*%
G01*
%ADD10R,2.700000X1.600000*%
%ADD11R,1.600000X2.700000*%
%ADD12R,1.300000X0.700000*%
%ADD13R,2.200000X0.600000*%
%ADD14R,1.200000X1.800000*%
%ADD15R,1.800000X1.200000*%
%ADD16R,1.000000X1.400000*%


D10*
X220000Y619000D03*
X220000Y591000D03*
X500000Y211000D03*
X500000Y239000D03*
X260000Y619000D03*
X260000Y591000D03*
X585000Y211000D03*
X585000Y239000D03*
D11*
X236000Y60000D03*
X264000Y60000D03*
X544000Y580000D03*
X516000Y580000D03*
D10*
X175000Y481000D03*
X175000Y509000D03*
D11*
X466000Y580000D03*
X494000Y580000D03*
D12*
X267500Y548650D03*
X267500Y535950D03*
X267500Y561350D03*
X267500Y574050D03*
X212500Y548650D03*
X212500Y535950D03*
X212500Y561350D03*
X212500Y574050D03*
D13*
X260000Y185000D03*
X260000Y172300D03*
X260000Y159600D03*
X260000Y146900D03*
X260000Y134200D03*
X260000Y121500D03*
X260000Y108800D03*
X260000Y96100D03*
X260000Y83400D03*
X169900Y83400D03*
X169900Y96100D03*
X169900Y108800D03*
X169900Y121500D03*
X169900Y134200D03*
X169900Y146900D03*
X169900Y159600D03*
X169900Y172300D03*
X169900Y185000D03*
D14*
X190000Y584990D03*
X190000Y555010D03*
X160000Y365010D03*
X160000Y394990D03*
D15*
X235010Y520000D03*
X264990Y520000D03*
X494990Y610000D03*
X465010Y610000D03*
X364990Y370000D03*
X335010Y370000D03*
D14*
X540000Y365010D03*
X540000Y394990D03*
X160000Y305010D03*
X160000Y334990D03*
X540000Y334990D03*
X540000Y305010D03*
D15*
X335010Y320000D03*
X364990Y320000D03*
D16*
X480000Y361000D03*
X470500Y339000D03*
X489500Y339000D03*
M02*
